<svg id="visual" viewBox="0 0 900 600" width="900" height="600" xmlns="http://www.w3.org/2000/svg" xmlns:xlink="http://www.w3.org/1999/xlink" version="1.1"><rect x="0" y="0" width="900" height="600" fill="#A8A89E"></rect><path d="M0 350L129 377L257 375L386 412L514 407L643 353L771 406L900 425L900 601L771 601L643 601L514 601L386 601L257 601L129 601L0 601Z" fill="#f3a15e"></path><path d="M0 428L129 457L257 464L386 456L514 479L643 447L771 425L900 415L900 601L771 601L643 601L514 601L386 601L257 601L129 601L0 601Z" fill="#e0926b"></path><path d="M0 439L129 437L257 447L386 453L514 476L643 509L771 499L900 447L900 601L771 601L643 601L514 601L386 601L257 601L129 601L0 601Z" fill="#c78774"></path><path d="M0 528L129 533L257 520L386 485L514 534L643 485L771 542L900 523L900 601L771 601L643 601L514 601L386 601L257 601L129 601L0 601Z" fill="#a97e78"></path><path d="M0 533L129 549L257 530L386 558L514 528L643 552L771 568L900 542L900 601L771 601L643 601L514 601L386 601L257 601L129 601L0 601Z" fill="#877676"></path></svg>