<svg id="visual" viewBox="0 0 900 600" width="900" height="600" xmlns="http://www.w3.org/2000/svg" xmlns:xlink="http://www.w3.org/1999/xlink" version="1.1"><rect x="0" y="0" width="900" height="600" fill="#232323"></rect><path d="M0 431L180 387L360 446L540 454L720 397L900 450L900 601L720 601L540 601L360 601L180 601L0 601Z" fill="#ac896c"></path><path d="M0 471L180 461L360 449L540 520L720 432L900 430L900 601L720 601L540 601L360 601L180 601L0 601Z" fill="#846658"></path><path d="M0 525L180 503L360 498L540 522L720 518L900 507L900 601L720 601L540 601L360 601L180 601L0 601Z" fill="#5a4743"></path><path d="M0 523L180 575L360 555L540 527L720 530L900 536L900 601L720 601L540 601L360 601L180 601L0 601Z" fill="#302b2b"></path></svg>